solid OpenSCAD_Model
  facet normal -0.222521 0.974928 0
    outer loop
      vertex -11.253 -1.56366 5
      vertex -11.253 -1.56366 0
      vertex -12.3103 -1.80498 5
    endloop
  endfacet
  facet normal -0.222521 0.974928 0
    outer loop
      vertex -12.3103 -1.80498 5
      vertex -11.253 -1.56366 0
      vertex -12.3103 -1.80498 0
    endloop
  endfacet
  facet normal -0.994522 -0.104528 0
    outer loop
      vertex -12.3103 -1.80498 0
      vertex -12.2268 -2.5989 0
      vertex -12.3103 -1.80498 5
    endloop
  endfacet
  facet normal -0.994522 -0.104528 0
    outer loop
      vertex -12.3103 -1.80498 5
      vertex -12.2268 -2.5989 0
      vertex -12.2268 -2.5989 5
    endloop
  endfacet
  facet normal 0 0 -1
    outer loop
      vertex -12.3103 -1.80498 0
      vertex -11.253 -1.56366 0
      vertex -12.2268 -2.5989 0
    endloop
  endfacet
  facet normal 0 0 -1
    outer loop
      vertex -4.27234 10.5272 0
      vertex -11.253 -1.56366 0
      vertex -5.25 9.09327 0
    endloop
  endfacet
  facet normal 0 0 -1
    outer loop
      vertex -6.98068 8.96357 0
      vertex -10.5 0 0
      vertex -7.7183 9.75853 0
    endloop
  endfacet
  facet normal 0 0 -1
    outer loop
      vertex -10.5 0 0
      vertex -10.5 1.28584e-015 0
      vertex -10.5 2.57167e-015 0
    endloop
  endfacet
  facet normal 0 0 -1
    outer loop
      vertex -10.5272 4.27234 0
      vertex -10.5 2.57167e-015 0
      vertex -11.5778 4.5964 0
    endloop
  endfacet
  facet normal 0 0 -1
    outer loop
      vertex -12.2268 2.5989 0
      vertex -11.253 1.56366 0
      vertex -12.3103 1.80498 0
    endloop
  endfacet
  facet normal 0 0 -1
    outer loop
      vertex -11.5778 4.5964 0
      vertex -11.253 1.56366 0
      vertex -12.2268 2.5989 0
    endloop
  endfacet
  facet normal 0 0 -1
    outer loop
      vertex -10.5 2.57167e-015 0
      vertex -11.253 1.56366 0
      vertex -11.5778 4.5964 0
    endloop
  endfacet
  facet normal 0 0 -1
    outer loop
      vertex -10.5 0 0
      vertex -10.5 2.57167e-015 0
      vertex -9.09327 5.25 0
    endloop
  endfacet
  facet normal 0 0 -1
    outer loop
      vertex -10.5 2.57167e-015 0
      vertex -10.5272 4.27234 0
      vertex -9.09327 5.25 0
    endloop
  endfacet
  facet normal 0 0 -1
    outer loop
      vertex -7.7183 9.75853 0
      vertex -9.09327 5.25 0
      vertex -8.36413 9.28931 0
    endloop
  endfacet
  facet normal 0 0 -1
    outer loop
      vertex -8.36413 9.28931 0
      vertex -8.96357 6.98068 0
      vertex -9.76951 7.72848 0
    endloop
  endfacet
  facet normal 0 0 -1
    outer loop
      vertex -9.09327 5.25 0
      vertex -8.96357 6.98068 0
      vertex -8.36413 9.28931 0
    endloop
  endfacet
  facet normal 0 0 -1
    outer loop
      vertex -10.5 0 0
      vertex -9.09327 5.25 0
      vertex -7.7183 9.75853 0
    endloop
  endfacet
  facet normal 0 0 -1
    outer loop
      vertex -11.253 -1.56366 0
      vertex -10.5 0 0
      vertex -5.25 9.09327 0
    endloop
  endfacet
  facet normal 0 0 -1
    outer loop
      vertex -10.5 0 0
      vertex -6.98068 8.96357 0
      vertex -5.25 9.09327 0
    endloop
  endfacet
  facet normal 0 0 -1
    outer loop
      vertex -1.56366 11.253 0
      vertex -11.253 -1.56366 0
      vertex -1.80831 12.3249 0
    endloop
  endfacet
  facet normal 0 0 -1
    outer loop
      vertex -3.86271 11.8882 0
      vertex -4.27234 10.5272 0
      vertex -4.59199 11.5635 0
    endloop
  endfacet
  facet normal 0 0 -1
    outer loop
      vertex -1.80831 12.3249 0
      vertex -4.27234 10.5272 0
      vertex -3.86271 11.8882 0
    endloop
  endfacet
  facet normal 0 0 -1
    outer loop
      vertex -11.253 -1.56366 0
      vertex -4.27234 10.5272 0
      vertex -1.80831 12.3249 0
    endloop
  endfacet
  facet normal 0 0 -1
    outer loop
      vertex 1.56366 11.253 0
      vertex -11.253 -1.56366 0
      vertex 2.33147e-015 10.5 0
    endloop
  endfacet
  facet normal 0 0 -1
    outer loop
      vertex -11.253 -1.56366 0
      vertex -1.56366 11.253 0
      vertex 2.33147e-015 10.5 0
    endloop
  endfacet
  facet normal 0 0 -1
    outer loop
      vertex -12.2268 -2.5989 0
      vertex -11.253 -1.56366 0
      vertex 1.56366 11.253 0
    endloop
  endfacet
  facet normal 0 0 -1
    outer loop
      vertex 3.86271 11.8882 0
      vertex 1.56366 11.253 0
      vertex 1.80831 12.3249 0
    endloop
  endfacet
  facet normal 0 0 -1
    outer loop
      vertex -12.2268 -2.5989 0
      vertex 1.56366 11.253 0
      vertex 3.86271 11.8882 0
    endloop
  endfacet
  facet normal 0 0 -1
    outer loop
      vertex -12.2268 -2.5989 0
      vertex 3.86271 11.8882 0
      vertex 4.59199 11.5635 0
    endloop
  endfacet
  facet normal 0 0 -1
    outer loop
      vertex -2.94449 5.1 0
      vertex 4.59199 11.5635 0
      vertex 4.27234 10.5272 0
    endloop
  endfacet
  facet normal 0 0 -1
    outer loop
      vertex 2.94449 5.1 0
      vertex 8.96357 6.98068 0
      vertex 9.09327 5.25 0
    endloop
  endfacet
  facet normal 0 0 -1
    outer loop
      vertex 6.98068 8.96357 0
      vertex 7.7183 9.75853 0
      vertex 8.36413 9.28931 0
    endloop
  endfacet
  facet normal 0 0 -1
    outer loop
      vertex 2.94449 5.1 0
      vertex 8.36413 9.28931 0
      vertex 9.76951 7.72848 0
    endloop
  endfacet
  facet normal 0 0 -1
    outer loop
      vertex 10.5272 4.27234 0
      vertex 11.5778 4.5964 0
      vertex 12.2268 2.5989 0
    endloop
  endfacet
  facet normal 0 0 -1
    outer loop
      vertex 5.88897 0 0
      vertex 11.253 1.56366 0
      vertex 10.5 -1.28584e-015 0
    endloop
  endfacet
  facet normal 0 0 -1
    outer loop
      vertex 10.5272 -4.27234 0
      vertex 12.2268 -2.5989 0
      vertex 11.5778 -4.5964 0
    endloop
  endfacet
  facet normal 0 0 -1
    outer loop
      vertex 5.88897 0 0
      vertex 9.09327 -5.25 0
      vertex 2.94449 -5.1 0
    endloop
  endfacet
  facet normal 0 0 -1
    outer loop
      vertex 5.25 -9.09327 0
      vertex -12.2268 -2.5989 0
      vertex 6.98068 -8.96357 0
    endloop
  endfacet
  facet normal 0 0 -1
    outer loop
      vertex 2.94449 -5.1 0
      vertex 9.09327 -5.25 0
      vertex 8.96357 -6.98068 0
    endloop
  endfacet
  facet normal 0 0 -1
    outer loop
      vertex 11.253 -1.56366 0
      vertex 12.3103 -1.80498 0
      vertex 12.2268 -2.5989 0
    endloop
  endfacet
  facet normal 0 0 -1
    outer loop
      vertex -2.94449 -5.1 0
      vertex 9.76951 -7.72848 0
      vertex 8.36413 -9.28931 0
    endloop
  endfacet
  facet normal 0 0 -1
    outer loop
      vertex 6.98068 -8.96357 0
      vertex 8.36413 -9.28931 0
      vertex 7.7183 -9.75853 0
    endloop
  endfacet
  facet normal 0 0 -1
    outer loop
      vertex -12.2268 -2.5989 0
      vertex 8.36413 -9.28931 0
      vertex 6.98068 -8.96357 0
    endloop
  endfacet
  facet normal 0 0 -1
    outer loop
      vertex -1.56366 -11.253 0
      vertex -12.2268 -2.5989 0
      vertex -2.33147e-015 -10.5 0
    endloop
  endfacet
  facet normal 0 0 -1
    outer loop
      vertex -12.2268 -2.5989 0
      vertex 5.25 -9.09327 0
      vertex 4.27234 -10.5272 0
    endloop
  endfacet
  facet normal 0 0 -1
    outer loop
      vertex 4.27234 -10.5272 0
      vertex 4.59199 -11.5635 0
      vertex -12.2268 -2.5989 0
    endloop
  endfacet
  facet normal 0 0 -1
    outer loop
      vertex -12.2268 -2.5989 0
      vertex 4.59199 -11.5635 0
      vertex 3.86271 -11.8882 0
    endloop
  endfacet
  facet normal 0 0 -1
    outer loop
      vertex 1.56366 -11.253 0
      vertex 3.86271 -11.8882 0
      vertex 1.80831 -12.3249 0
    endloop
  endfacet
  facet normal 0 0 -1
    outer loop
      vertex -12.2268 -2.5989 0
      vertex 3.86271 -11.8882 0
      vertex 1.56366 -11.253 0
    endloop
  endfacet
  facet normal 0 0 -1
    outer loop
      vertex -12.2268 -2.5989 0
      vertex 1.56366 -11.253 0
      vertex -2.33147e-015 -10.5 0
    endloop
  endfacet
  facet normal 0 0 -1
    outer loop
      vertex -8.96357 -6.98068 0
      vertex -8.36413 -9.28931 0
      vertex -9.76951 -7.72848 0
    endloop
  endfacet
  facet normal 0 0 -1
    outer loop
      vertex -4.27234 -10.5272 0
      vertex -3.86271 -11.8882 0
      vertex -4.59199 -11.5635 0
    endloop
  endfacet
  facet normal 0 0 -1
    outer loop
      vertex -5.25 -9.09327 0
      vertex -1.56366 -11.253 0
      vertex -1.80831 -12.3249 0
    endloop
  endfacet
  facet normal 0 0 -1
    outer loop
      vertex -4.27234 -10.5272 0
      vertex -1.80831 -12.3249 0
      vertex -3.86271 -11.8882 0
    endloop
  endfacet
  facet normal 0 0 -1
    outer loop
      vertex -5.25 -9.09327 0
      vertex -1.80831 -12.3249 0
      vertex -4.27234 -10.5272 0
    endloop
  endfacet
  facet normal 0 0 -1
    outer loop
      vertex -9.09327 -5.25 0
      vertex -1.56366 -11.253 0
      vertex -5.25 -9.09327 0
    endloop
  endfacet
  facet normal 0 0 -1
    outer loop
      vertex -2.94449 5.1 0
      vertex 6.98068 8.96357 0
      vertex 8.36413 9.28931 0
    endloop
  endfacet
  facet normal 0 0 -1
    outer loop
      vertex -8.96357 -6.98068 0
      vertex -7.7183 -9.75853 0
      vertex -8.36413 -9.28931 0
    endloop
  endfacet
  facet normal 0 0 -1
    outer loop
      vertex -8.96357 -6.98068 0
      vertex -6.98068 -8.96357 0
      vertex -7.7183 -9.75853 0
    endloop
  endfacet
  facet normal 0 0 -1
    outer loop
      vertex -9.09327 -5.25 0
      vertex -6.98068 -8.96357 0
      vertex -8.96357 -6.98068 0
    endloop
  endfacet
  facet normal 0 0 -1
    outer loop
      vertex -2.94449 5.1 0
      vertex 5.25 9.09327 0
      vertex 6.98068 8.96357 0
    endloop
  endfacet
  facet normal 0 0 -1
    outer loop
      vertex -2.94449 5.1 0
      vertex 8.36413 9.28931 0
      vertex 2.94449 5.1 0
    endloop
  endfacet
  facet normal 0 0 -1
    outer loop
      vertex -9.09327 -5.25 0
      vertex -5.25 -9.09327 0
      vertex -6.98068 -8.96357 0
    endloop
  endfacet
  facet normal 0 0 -1
    outer loop
      vertex -12.2268 -2.5989 0
      vertex -1.56366 -11.253 0
      vertex -9.09327 -5.25 0
    endloop
  endfacet
  facet normal 0 0 -1
    outer loop
      vertex -11.5778 -4.5964 0
      vertex -12.2268 -2.5989 0
      vertex -10.5272 -4.27234 0
    endloop
  endfacet
  facet normal 0 0 -1
    outer loop
      vertex -2.94449 5.1 0
      vertex 4.27234 10.5272 0
      vertex 5.25 9.09327 0
    endloop
  endfacet
  facet normal 0 0 -1
    outer loop
      vertex -5.88897 0 0
      vertex -12.2268 -2.5989 0
      vertex -2.94449 5.1 0
    endloop
  endfacet
  facet normal 0 0 -1
    outer loop
      vertex -2.94449 -5.1 0
      vertex -12.2268 -2.5989 0
      vertex -5.88897 0 0
    endloop
  endfacet
  facet normal 0 0 -1
    outer loop
      vertex 5.88897 0 0
      vertex 10.5 -1.28584e-015 0
      vertex 11.253 -1.56366 0
    endloop
  endfacet
  facet normal 0 0 -1
    outer loop
      vertex -12.2268 -2.5989 0
      vertex -2.94449 -5.1 0
      vertex 8.36413 -9.28931 0
    endloop
  endfacet
  facet normal 0 0 -1
    outer loop
      vertex 5.88897 0 0
      vertex 12.2268 -2.5989 0
      vertex 10.5272 -4.27234 0
    endloop
  endfacet
  facet normal 0 0 -1
    outer loop
      vertex 5.88897 0 0
      vertex 11.253 -1.56366 0
      vertex 12.2268 -2.5989 0
    endloop
  endfacet
  facet normal 0 0 -1
    outer loop
      vertex -12.2268 -2.5989 0
      vertex 4.59199 11.5635 0
      vertex -2.94449 5.1 0
    endloop
  endfacet
  facet normal 0 0 -1
    outer loop
      vertex 2.94449 5.1 0
      vertex 9.09327 5.25 0
      vertex 10.5272 4.27234 0
    endloop
  endfacet
  facet normal 0 0 -1
    outer loop
      vertex 5.88897 0 0
      vertex 10.5272 -4.27234 0
      vertex 9.09327 -5.25 0
    endloop
  endfacet
  facet normal 0 0 -1
    outer loop
      vertex -10.5272 -4.27234 0
      vertex -12.2268 -2.5989 0
      vertex -9.09327 -5.25 0
    endloop
  endfacet
  facet normal 0 0 -1
    outer loop
      vertex 2.94449 5.1 0
      vertex 9.76951 7.72848 0
      vertex 8.96357 6.98068 0
    endloop
  endfacet
  facet normal 0 0 -1
    outer loop
      vertex 2.94449 5.1 0
      vertex 10.5272 4.27234 0
      vertex 12.2268 2.5989 0
    endloop
  endfacet
  facet normal 0 0 -1
    outer loop
      vertex 2.94449 5.1 0
      vertex 12.2268 2.5989 0
      vertex 12.3103 1.80498 0
    endloop
  endfacet
  facet normal 0 0 -1
    outer loop
      vertex 2.94449 5.1 0
      vertex 12.3103 1.80498 0
      vertex 11.253 1.56366 0
    endloop
  endfacet
  facet normal 0 0 -1
    outer loop
      vertex 2.94449 5.1 0
      vertex 11.253 1.56366 0
      vertex 5.88897 0 0
    endloop
  endfacet
  facet normal 0 0 -1
    outer loop
      vertex 2.94449 -5.1 0
      vertex 8.96357 -6.98068 0
      vertex 9.76951 -7.72848 0
    endloop
  endfacet
  facet normal 0 0 -1
    outer loop
      vertex 2.94449 -5.1 0
      vertex 9.76951 -7.72848 0
      vertex -2.94449 -5.1 0
    endloop
  endfacet
  facet normal 0 0 1
    outer loop
      vertex -11.253 -1.56366 5
      vertex -12.3103 -1.80498 5
      vertex -12.2268 -2.5989 5
    endloop
  endfacet
  facet normal 0 0 1
    outer loop
      vertex -10.5272 -4.27234 5
      vertex -11.253 -1.56366 5
      vertex -11.5778 -4.5964 5
    endloop
  endfacet
  facet normal 0 0 1
    outer loop
      vertex -11.5778 -4.5964 5
      vertex -11.253 -1.56366 5
      vertex -12.2268 -2.5989 5
    endloop
  endfacet
  facet normal 0 0 1
    outer loop
      vertex -9.09327 -5.25 5
      vertex -11.253 -1.56366 5
      vertex -10.5272 -4.27234 5
    endloop
  endfacet
  facet normal 0 0 1
    outer loop
      vertex -5.25 -9.09327 5
      vertex -11.253 -1.56366 5
      vertex -9.09327 -5.25 5
    endloop
  endfacet
  facet normal 0 0 1
    outer loop
      vertex -8.36413 -9.28931 5
      vertex -9.09327 -5.25 5
      vertex -8.96357 -6.98068 5
    endloop
  endfacet
  facet normal 0 0 1
    outer loop
      vertex -8.36413 -9.28931 5
      vertex -8.96357 -6.98068 5
      vertex -9.76951 -7.72848 5
    endloop
  endfacet
  facet normal 0 0 1
    outer loop
      vertex -7.7183 -9.75853 5
      vertex -9.09327 -5.25 5
      vertex -8.36413 -9.28931 5
    endloop
  endfacet
  facet normal 0 0 1
    outer loop
      vertex -6.98068 -8.96357 5
      vertex -9.09327 -5.25 5
      vertex -7.7183 -9.75853 5
    endloop
  endfacet
  facet normal 0 0 1
    outer loop
      vertex -5.25 -9.09327 5
      vertex -9.09327 -5.25 5
      vertex -6.98068 -8.96357 5
    endloop
  endfacet
  facet normal 0 0 1
    outer loop
      vertex -1.80831 -12.3249 5
      vertex -11.253 -1.56366 5
      vertex -5.25 -9.09327 5
    endloop
  endfacet
  facet normal 0 0 1
    outer loop
      vertex -1.80831 -12.3249 5
      vertex -5.25 -9.09327 5
      vertex -4.27234 -10.5272 5
    endloop
  endfacet
  facet normal 0 0 1
    outer loop
      vertex -3.86271 -11.8882 5
      vertex -4.27234 -10.5272 5
      vertex -4.59199 -11.5635 5
    endloop
  endfacet
  facet normal 0 0 1
    outer loop
      vertex -1.80831 -12.3249 5
      vertex -4.27234 -10.5272 5
      vertex -3.86271 -11.8882 5
    endloop
  endfacet
  facet normal 0 0 1
    outer loop
      vertex -1.56366 -11.253 5
      vertex -11.253 -1.56366 5
      vertex -1.80831 -12.3249 5
    endloop
  endfacet
  facet normal 0 0 1
    outer loop
      vertex -2.33147e-015 -10.5 5
      vertex -11.253 -1.56366 5
      vertex -1.56366 -11.253 5
    endloop
  endfacet
  facet normal 0 0 1
    outer loop
      vertex 1.56366 -11.253 5
      vertex -11.253 -1.56366 5
      vertex -2.33147e-015 -10.5 5
    endloop
  endfacet
  facet normal 0 0 1
    outer loop
      vertex 3.86271 -11.8882 5
      vertex -11.253 -1.56366 5
      vertex 1.56366 -11.253 5
    endloop
  endfacet
  facet normal 0 0 1
    outer loop
      vertex 3.86271 -11.8882 5
      vertex 1.56366 -11.253 5
      vertex 1.80831 -12.3249 5
    endloop
  endfacet
  facet normal 0 0 1
    outer loop
      vertex 4.59199 -11.5635 5
      vertex -11.253 -1.56366 5
      vertex 3.86271 -11.8882 5
    endloop
  endfacet
  facet normal 0 0 1
    outer loop
      vertex 4.27234 -10.5272 5
      vertex -11.253 -1.56366 5
      vertex 4.59199 -11.5635 5
    endloop
  endfacet
  facet normal 0 0 1
    outer loop
      vertex -3.25 -5.62916 5
      vertex -11.253 -1.56366 5
      vertex 4.27234 -10.5272 5
    endloop
  endfacet
  facet normal 0 0 1
    outer loop
      vertex -3.25 -5.62916 5
      vertex -4.76484 -4.42112 5
      vertex -11.253 -1.56366 5
    endloop
  endfacet
  facet normal 0 0 1
    outer loop
      vertex 8.36413 -9.28931 5
      vertex 6.98068 -8.96357 5
      vertex 7.7183 -9.75853 5
    endloop
  endfacet
  facet normal 0 0 1
    outer loop
      vertex 0.485746 -6.48182 5
      vertex -1.44639 -6.33703 5
      vertex 5.25 -9.09327 5
    endloop
  endfacet
  facet normal 0 0 1
    outer loop
      vertex 2.37472 -6.05068 5
      vertex 6.98068 -8.96357 5
      vertex 8.36413 -9.28931 5
    endloop
  endfacet
  facet normal 0 0 1
    outer loop
      vertex 2.37472 -6.05068 5
      vertex 0.485746 -6.48182 5
      vertex 6.98068 -8.96357 5
    endloop
  endfacet
  facet normal 0 0 1
    outer loop
      vertex -6.4274 -0.968775 5
      vertex -6.4274 0.968775 5
      vertex -10.5 0 5
    endloop
  endfacet
  facet normal 0 0 1
    outer loop
      vertex 6.5 0 5
      vertex 11.253 -1.56366 5
      vertex 10.5 -1.28584e-015 5
    endloop
  endfacet
  facet normal 0 0 1
    outer loop
      vertex 12.2268 -2.5989 5
      vertex 10.5272 -4.27234 5
      vertex 11.5778 -4.5964 5
    endloop
  endfacet
  facet normal 0 0 1
    outer loop
      vertex 11.253 -1.56366 5
      vertex 6.21122 -1.91591 5
      vertex 12.3103 -1.80498 5
    endloop
  endfacet
  facet normal 0 0 1
    outer loop
      vertex 6.21122 1.91591 5
      vertex 12.3103 1.80498 5
      vertex 12.2268 2.5989 5
    endloop
  endfacet
  facet normal 0 0 1
    outer loop
      vertex -6.4274 0.968775 5
      vertex -5.8563 2.82024 5
      vertex -10.5 0 5
    endloop
  endfacet
  facet normal 0 0 1
    outer loop
      vertex 11.5778 4.5964 5
      vertex 10.5272 4.27234 5
      vertex 12.2268 2.5989 5
    endloop
  endfacet
  facet normal 0 0 1
    outer loop
      vertex -9.76951 7.72848 5
      vertex -8.96357 6.98068 5
      vertex -8.36413 9.28931 5
    endloop
  endfacet
  facet normal 0 0 1
    outer loop
      vertex 10.5272 4.27234 5
      vertex 9.09327 5.25 5
      vertex 5.37055 3.66158 5
    endloop
  endfacet
  facet normal 0 0 1
    outer loop
      vertex -11.253 1.56366 5
      vertex -1.80831 12.3249 5
      vertex -5.25 9.09327 5
    endloop
  endfacet
  facet normal 0 0 1
    outer loop
      vertex -11.253 1.56366 5
      vertex 2.33147e-015 10.5 5
      vertex -1.56366 11.253 5
    endloop
  endfacet
  facet normal 0 0 1
    outer loop
      vertex -5.8563 -2.82024 5
      vertex -6.4274 -0.968775 5
      vertex -11.253 -1.56366 5
    endloop
  endfacet
  facet normal 0 0 1
    outer loop
      vertex 7.7183 9.75853 5
      vertex 6.98068 8.96357 5
      vertex 8.36413 9.28931 5
    endloop
  endfacet
  facet normal 0 0 1
    outer loop
      vertex 1.80831 12.3249 5
      vertex 1.56366 11.253 5
      vertex 3.86271 11.8882 5
    endloop
  endfacet
  facet normal 0 0 1
    outer loop
      vertex 4.05268 -5.0819 5
      vertex 9.76951 -7.72848 5
      vertex 8.96357 -6.98068 5
    endloop
  endfacet
  facet normal 0 0 1
    outer loop
      vertex -9.09327 5.25 5
      vertex -5.25 9.09327 5
      vertex -6.98068 8.96357 5
    endloop
  endfacet
  facet normal 0 0 1
    outer loop
      vertex -3.86271 11.8882 5
      vertex -4.27234 10.5272 5
      vertex -1.80831 12.3249 5
    endloop
  endfacet
  facet normal 0 0 1
    outer loop
      vertex 5.37055 -3.66158 5
      vertex 4.05268 -5.0819 5
      vertex 9.09327 -5.25 5
    endloop
  endfacet
  facet normal 0 0 1
    outer loop
      vertex -8.96357 6.98068 5
      vertex -9.09327 5.25 5
      vertex -7.7183 9.75853 5
    endloop
  endfacet
  facet normal 0 0 1
    outer loop
      vertex -8.36413 9.28931 5
      vertex -8.96357 6.98068 5
      vertex -7.7183 9.75853 5
    endloop
  endfacet
  facet normal 0 0 1
    outer loop
      vertex -12.3103 1.80498 5
      vertex -10.5272 4.27234 5
      vertex -11.5778 4.5964 5
    endloop
  endfacet
  facet normal 0 0 1
    outer loop
      vertex -7.7183 9.75853 5
      vertex -9.09327 5.25 5
      vertex -6.98068 8.96357 5
    endloop
  endfacet
  facet normal 0 0 1
    outer loop
      vertex -12.3103 1.80498 5
      vertex -11.253 1.56366 5
      vertex -10.5272 4.27234 5
    endloop
  endfacet
  facet normal 0 0 1
    outer loop
      vertex -12.3103 1.80498 5
      vertex -11.5778 4.5964 5
      vertex -12.2268 2.5989 5
    endloop
  endfacet
  facet normal 0 0 1
    outer loop
      vertex -11.253 1.56366 5
      vertex -5.25 9.09327 5
      vertex -9.09327 5.25 5
    endloop
  endfacet
  facet normal 0 0 1
    outer loop
      vertex -5.25 9.09327 5
      vertex -1.80831 12.3249 5
      vertex -4.27234 10.5272 5
    endloop
  endfacet
  facet normal 0 0 1
    outer loop
      vertex -9.09327 5.25 5
      vertex -10.5272 4.27234 5
      vertex -11.253 1.56366 5
    endloop
  endfacet
  facet normal 0 0 1
    outer loop
      vertex 2.33147e-015 10.5 5
      vertex -10.5 2.57167e-015 5
      vertex 1.56366 11.253 5
    endloop
  endfacet
  facet normal 0 0 1
    outer loop
      vertex 6.21122 -1.91591 5
      vertex 5.37055 -3.66158 5
      vertex 10.5272 -4.27234 5
    endloop
  endfacet
  facet normal 0 0 1
    outer loop
      vertex -10.5 2.57167e-015 5
      vertex -10.5 1.28584e-015 5
      vertex 1.56366 11.253 5
    endloop
  endfacet
  facet normal 0 0 1
    outer loop
      vertex -10.5 1.28584e-015 5
      vertex -10.5 0 5
      vertex 1.56366 11.253 5
    endloop
  endfacet
  facet normal 0 0 1
    outer loop
      vertex 4.05268 -5.0819 5
      vertex 2.37472 -6.05068 5
      vertex 9.76951 -7.72848 5
    endloop
  endfacet
  facet normal 0 0 1
    outer loop
      vertex 4.05268 5.0819 5
      vertex 9.09327 5.25 5
      vertex 8.96357 6.98068 5
    endloop
  endfacet
  facet normal 0 0 1
    outer loop
      vertex -11.253 1.56366 5
      vertex -10.5 2.57167e-015 5
      vertex 2.33147e-015 10.5 5
    endloop
  endfacet
  facet normal 0 0 1
    outer loop
      vertex 6.21122 1.91591 5
      vertex 6.5 0 5
      vertex 11.253 1.56366 5
    endloop
  endfacet
  facet normal 0 0 1
    outer loop
      vertex -1.44639 6.33703 5
      vertex 0.485746 6.48182 5
      vertex 4.27234 10.5272 5
    endloop
  endfacet
  facet normal 0 0 1
    outer loop
      vertex 3.86271 11.8882 5
      vertex -3.25 5.62916 5
      vertex 4.59199 11.5635 5
    endloop
  endfacet
  facet normal 0 0 1
    outer loop
      vertex 3.86271 11.8882 5
      vertex -4.76484 4.42112 5
      vertex -3.25 5.62916 5
    endloop
  endfacet
  facet normal 0 0 1
    outer loop
      vertex 4.59199 11.5635 5
      vertex -1.44639 6.33703 5
      vertex 4.27234 10.5272 5
    endloop
  endfacet
  facet normal 0 0 1
    outer loop
      vertex 4.27234 10.5272 5
      vertex 0.485746 6.48182 5
      vertex 5.25 9.09327 5
    endloop
  endfacet
  facet normal 0 0 1
    outer loop
      vertex 4.05268 5.0819 5
      vertex 5.37055 3.66158 5
      vertex 9.09327 5.25 5
    endloop
  endfacet
  facet normal 0 0 1
    outer loop
      vertex 9.76951 7.72848 5
      vertex 4.05268 5.0819 5
      vertex 8.96357 6.98068 5
    endloop
  endfacet
  facet normal 0 0 1
    outer loop
      vertex -11.253 1.56366 5
      vertex -1.56366 11.253 5
      vertex -1.80831 12.3249 5
    endloop
  endfacet
  facet normal 0 0 1
    outer loop
      vertex 2.37472 6.05068 5
      vertex 9.76951 7.72848 5
      vertex 8.36413 9.28931 5
    endloop
  endfacet
  facet normal 0 0 1
    outer loop
      vertex 10.5272 4.27234 5
      vertex 6.21122 1.91591 5
      vertex 12.2268 2.5989 5
    endloop
  endfacet
  facet normal 0 0 1
    outer loop
      vertex 11.253 1.56366 5
      vertex 6.5 0 5
      vertex 10.5 -1.28584e-015 5
    endloop
  endfacet
  facet normal 0 0 1
    outer loop
      vertex 12.3103 -1.80498 5
      vertex 6.21122 -1.91591 5
      vertex 12.2268 -2.5989 5
    endloop
  endfacet
  facet normal 0 0 1
    outer loop
      vertex 6.5 0 5
      vertex 6.21122 -1.91591 5
      vertex 11.253 -1.56366 5
    endloop
  endfacet
  facet normal 0 0 1
    outer loop
      vertex 10.5272 -4.27234 5
      vertex 5.37055 -3.66158 5
      vertex 9.09327 -5.25 5
    endloop
  endfacet
  facet normal 0 0 1
    outer loop
      vertex -6.4274 -0.968775 5
      vertex -10.5 0 5
      vertex -11.253 -1.56366 5
    endloop
  endfacet
  facet normal 0 0 1
    outer loop
      vertex 9.09327 -5.25 5
      vertex 4.05268 -5.0819 5
      vertex 8.96357 -6.98068 5
    endloop
  endfacet
  facet normal 0 0 1
    outer loop
      vertex 9.76951 -7.72848 5
      vertex 2.37472 -6.05068 5
      vertex 8.36413 -9.28931 5
    endloop
  endfacet
  facet normal 0 0 1
    outer loop
      vertex 6.98068 -8.96357 5
      vertex 0.485746 -6.48182 5
      vertex 5.25 -9.09327 5
    endloop
  endfacet
  facet normal 0 0 1
    outer loop
      vertex 5.25 -9.09327 5
      vertex -1.44639 -6.33703 5
      vertex 4.27234 -10.5272 5
    endloop
  endfacet
  facet normal 0 0 1
    outer loop
      vertex -1.44639 -6.33703 5
      vertex -3.25 -5.62916 5
      vertex 4.27234 -10.5272 5
    endloop
  endfacet
  facet normal 0 0 1
    outer loop
      vertex -4.76484 -4.42112 5
      vertex -5.8563 -2.82024 5
      vertex -11.253 -1.56366 5
    endloop
  endfacet
  facet normal 0 0 1
    outer loop
      vertex -10.5 0 5
      vertex 3.86271 11.8882 5
      vertex 1.56366 11.253 5
    endloop
  endfacet
  facet normal 0 0 1
    outer loop
      vertex -10.5 0 5
      vertex -4.76484 4.42112 5
      vertex 3.86271 11.8882 5
    endloop
  endfacet
  facet normal 0 0 1
    outer loop
      vertex -3.25 5.62916 5
      vertex -1.44639 6.33703 5
      vertex 4.59199 11.5635 5
    endloop
  endfacet
  facet normal 0 0 1
    outer loop
      vertex 0.485746 6.48182 5
      vertex 6.98068 8.96357 5
      vertex 5.25 9.09327 5
    endloop
  endfacet
  facet normal 0 0 1
    outer loop
      vertex 0.485746 6.48182 5
      vertex 8.36413 9.28931 5
      vertex 6.98068 8.96357 5
    endloop
  endfacet
  facet normal 0 0 1
    outer loop
      vertex 6.21122 -1.91591 5
      vertex 10.5272 -4.27234 5
      vertex 12.2268 -2.5989 5
    endloop
  endfacet
  facet normal 0 0 1
    outer loop
      vertex -5.8563 2.82024 5
      vertex -4.76484 4.42112 5
      vertex -10.5 0 5
    endloop
  endfacet
  facet normal 0 0 1
    outer loop
      vertex 0.485746 6.48182 5
      vertex 2.37472 6.05068 5
      vertex 8.36413 9.28931 5
    endloop
  endfacet
  facet normal 0 0 1
    outer loop
      vertex 6.21122 1.91591 5
      vertex 11.253 1.56366 5
      vertex 12.3103 1.80498 5
    endloop
  endfacet
  facet normal 0 0 1
    outer loop
      vertex 5.37055 3.66158 5
      vertex 6.21122 1.91591 5
      vertex 10.5272 4.27234 5
    endloop
  endfacet
  facet normal 0 0 1
    outer loop
      vertex 2.37472 6.05068 5
      vertex 4.05268 5.0819 5
      vertex 9.76951 7.72848 5
    endloop
  endfacet
  facet normal 0 0 1
    outer loop
      vertex -4.59199 11.5635 5
      vertex -4.27234 10.5272 5
      vertex -3.86271 11.8882 5
    endloop
  endfacet
  facet normal -0.900969 0.433884 0
    outer loop
      vertex -10.5 0 5
      vertex -10.5 0 0
      vertex -11.253 -1.56366 5
    endloop
  endfacet
  facet normal -0.900969 0.433884 0
    outer loop
      vertex -11.253 -1.56366 5
      vertex -10.5 0 0
      vertex -11.253 -1.56366 0
    endloop
  endfacet
  facet normal -0.951056 -0.309017 0
    outer loop
      vertex -12.2268 -2.5989 0
      vertex -11.5778 -4.5964 0
      vertex -12.2268 -2.5989 5
    endloop
  endfacet
  facet normal -0.951056 -0.309017 0
    outer loop
      vertex -12.2268 -2.5989 5
      vertex -11.5778 -4.5964 0
      vertex -11.5778 -4.5964 5
    endloop
  endfacet
  facet normal 0.294755 -0.955573 0
    outer loop
      vertex -10.5272 -4.27234 0
      vertex -10.5272 -4.27234 5
      vertex -11.5778 -4.5964 5
    endloop
  endfacet
  facet normal 0.294755 -0.955573 0
    outer loop
      vertex -11.5778 -4.5964 0
      vertex -10.5272 -4.27234 0
      vertex -11.5778 -4.5964 5
    endloop
  endfacet
  facet normal -0.56332 -0.826239 0
    outer loop
      vertex -9.09327 -5.25 0
      vertex -9.09327 -5.25 5
      vertex -10.5272 -4.27234 5
    endloop
  endfacet
  facet normal -0.56332 -0.826239 0
    outer loop
      vertex -10.5272 -4.27234 0
      vertex -9.09327 -5.25 0
      vertex -10.5272 -4.27234 5
    endloop
  endfacet
  facet normal -0.997204 -0.0747303 0
    outer loop
      vertex -8.96357 -6.98068 5
      vertex -9.09327 -5.25 5
      vertex -8.96357 -6.98068 0
    endloop
  endfacet
  facet normal -0.997204 -0.0747303 0
    outer loop
      vertex -8.96357 -6.98068 0
      vertex -9.09327 -5.25 5
      vertex -9.09327 -5.25 0
    endloop
  endfacet
  facet normal -0.680173 0.733052 0
    outer loop
      vertex -8.96357 -6.98068 5
      vertex -8.96357 -6.98068 0
      vertex -9.76951 -7.72848 5
    endloop
  endfacet
  facet normal -0.680173 0.733052 0
    outer loop
      vertex -9.76951 -7.72848 5
      vertex -8.96357 -6.98068 0
      vertex -9.76951 -7.72848 0
    endloop
  endfacet
  facet normal -0.743145 -0.669131 0
    outer loop
      vertex -9.76951 -7.72848 0
      vertex -8.36413 -9.28931 0
      vertex -9.76951 -7.72848 5
    endloop
  endfacet
  facet normal -0.743145 -0.669131 0
    outer loop
      vertex -9.76951 -7.72848 5
      vertex -8.36413 -9.28931 0
      vertex -8.36413 -9.28931 5
    endloop
  endfacet
  facet normal -0.587785 -0.809017 0
    outer loop
      vertex -8.36413 -9.28931 5
      vertex -8.36413 -9.28931 0
      vertex -7.7183 -9.75853 0
    endloop
  endfacet
  facet normal -0.587785 -0.809017 0
    outer loop
      vertex -7.7183 -9.75853 5
      vertex -8.36413 -9.28931 5
      vertex -7.7183 -9.75853 0
    endloop
  endfacet
  facet normal 0.733052 -0.680173 0
    outer loop
      vertex -6.98068 -8.96357 0
      vertex -6.98068 -8.96357 5
      vertex -7.7183 -9.75853 5
    endloop
  endfacet
  facet normal 0.733052 -0.680173 0
    outer loop
      vertex -7.7183 -9.75853 0
      vertex -6.98068 -8.96357 0
      vertex -7.7183 -9.75853 5
    endloop
  endfacet
  facet normal -0.0747303 -0.997204 0
    outer loop
      vertex -5.25 -9.09327 0
      vertex -5.25 -9.09327 5
      vertex -6.98068 -8.96357 5
    endloop
  endfacet
  facet normal -0.0747303 -0.997204 0
    outer loop
      vertex -6.98068 -8.96357 0
      vertex -5.25 -9.09327 0
      vertex -6.98068 -8.96357 5
    endloop
  endfacet
  facet normal -0.826239 -0.56332 0
    outer loop
      vertex -4.27234 -10.5272 5
      vertex -5.25 -9.09327 5
      vertex -4.27234 -10.5272 0
    endloop
  endfacet
  facet normal -0.826239 -0.56332 0
    outer loop
      vertex -4.27234 -10.5272 0
      vertex -5.25 -9.09327 5
      vertex -5.25 -9.09327 0
    endloop
  endfacet
  facet normal -0.955573 0.294755 0
    outer loop
      vertex -4.27234 -10.5272 5
      vertex -4.27234 -10.5272 0
      vertex -4.59199 -11.5635 5
    endloop
  endfacet
  facet normal -0.955573 0.294755 0
    outer loop
      vertex -4.59199 -11.5635 5
      vertex -4.27234 -10.5272 0
      vertex -4.59199 -11.5635 0
    endloop
  endfacet
  facet normal -0.406736 -0.913546 0
    outer loop
      vertex -4.59199 -11.5635 5
      vertex -4.59199 -11.5635 0
      vertex -3.86271 -11.8882 0
    endloop
  endfacet
  facet normal -0.406736 -0.913546 0
    outer loop
      vertex -3.86271 -11.8882 5
      vertex -4.59199 -11.5635 5
      vertex -3.86271 -11.8882 0
    endloop
  endfacet
  facet normal -0.207912 -0.978148 0
    outer loop
      vertex -3.86271 -11.8882 5
      vertex -3.86271 -11.8882 0
      vertex -1.80831 -12.3249 0
    endloop
  endfacet
  facet normal -0.207912 -0.978148 0
    outer loop
      vertex -1.80831 -12.3249 5
      vertex -3.86271 -11.8882 5
      vertex -1.80831 -12.3249 0
    endloop
  endfacet
  facet normal 0.974928 -0.222521 0
    outer loop
      vertex -1.56366 -11.253 0
      vertex -1.56366 -11.253 5
      vertex -1.80831 -12.3249 5
    endloop
  endfacet
  facet normal 0.974928 -0.222521 0
    outer loop
      vertex -1.80831 -12.3249 0
      vertex -1.56366 -11.253 0
      vertex -1.80831 -12.3249 5
    endloop
  endfacet
  facet normal 0.433884 -0.900969 0
    outer loop
      vertex -2.33147e-015 -10.5 0
      vertex -2.33147e-015 -10.5 5
      vertex -1.56366 -11.253 5
    endloop
  endfacet
  facet normal 0.433884 -0.900969 0
    outer loop
      vertex -1.56366 -11.253 0
      vertex -2.33147e-015 -10.5 0
      vertex -1.56366 -11.253 5
    endloop
  endfacet
  facet normal -0.433884 -0.900969 0
    outer loop
      vertex 1.56366 -11.253 0
      vertex 1.56366 -11.253 5
      vertex -2.33147e-015 -10.5 5
    endloop
  endfacet
  facet normal -0.433884 -0.900969 0
    outer loop
      vertex -2.33147e-015 -10.5 0
      vertex 1.56366 -11.253 0
      vertex -2.33147e-015 -10.5 5
    endloop
  endfacet
  facet normal -0.974928 -0.222521 0
    outer loop
      vertex 1.80831 -12.3249 5
      vertex 1.56366 -11.253 5
      vertex 1.80831 -12.3249 0
    endloop
  endfacet
  facet normal -0.974928 -0.222521 0
    outer loop
      vertex 1.80831 -12.3249 0
      vertex 1.56366 -11.253 5
      vertex 1.56366 -11.253 0
    endloop
  endfacet
  facet normal 0.207912 -0.978148 0
    outer loop
      vertex 1.80831 -12.3249 5
      vertex 1.80831 -12.3249 0
      vertex 3.86271 -11.8882 0
    endloop
  endfacet
  facet normal 0.207912 -0.978148 0
    outer loop
      vertex 3.86271 -11.8882 5
      vertex 1.80831 -12.3249 5
      vertex 3.86271 -11.8882 0
    endloop
  endfacet
  facet normal 0.406736 -0.913546 0
    outer loop
      vertex 3.86271 -11.8882 5
      vertex 3.86271 -11.8882 0
      vertex 4.59199 -11.5635 0
    endloop
  endfacet
  facet normal 0.406736 -0.913546 0
    outer loop
      vertex 4.59199 -11.5635 5
      vertex 3.86271 -11.8882 5
      vertex 4.59199 -11.5635 0
    endloop
  endfacet
  facet normal 0.955573 0.294755 0
    outer loop
      vertex 4.27234 -10.5272 5
      vertex 4.59199 -11.5635 5
      vertex 4.59199 -11.5635 0
    endloop
  endfacet
  facet normal 0.955573 0.294755 0
    outer loop
      vertex 4.27234 -10.5272 0
      vertex 4.27234 -10.5272 5
      vertex 4.59199 -11.5635 0
    endloop
  endfacet
  facet normal 0.826239 -0.56332 0
    outer loop
      vertex 5.25 -9.09327 0
      vertex 5.25 -9.09327 5
      vertex 4.27234 -10.5272 5
    endloop
  endfacet
  facet normal 0.826239 -0.56332 0
    outer loop
      vertex 4.27234 -10.5272 0
      vertex 5.25 -9.09327 0
      vertex 4.27234 -10.5272 5
    endloop
  endfacet
  facet normal 0.0747303 -0.997204 0
    outer loop
      vertex 6.98068 -8.96357 0
      vertex 6.98068 -8.96357 5
      vertex 5.25 -9.09327 5
    endloop
  endfacet
  facet normal 0.0747303 -0.997204 0
    outer loop
      vertex 5.25 -9.09327 0
      vertex 6.98068 -8.96357 0
      vertex 5.25 -9.09327 5
    endloop
  endfacet
  facet normal -0.733052 -0.680173 0
    outer loop
      vertex 7.7183 -9.75853 5
      vertex 6.98068 -8.96357 5
      vertex 7.7183 -9.75853 0
    endloop
  endfacet
  facet normal -0.733052 -0.680173 0
    outer loop
      vertex 7.7183 -9.75853 0
      vertex 6.98068 -8.96357 5
      vertex 6.98068 -8.96357 0
    endloop
  endfacet
  facet normal 0.587785 -0.809017 0
    outer loop
      vertex 7.7183 -9.75853 5
      vertex 7.7183 -9.75853 0
      vertex 8.36413 -9.28931 0
    endloop
  endfacet
  facet normal 0.587785 -0.809017 0
    outer loop
      vertex 8.36413 -9.28931 5
      vertex 7.7183 -9.75853 5
      vertex 8.36413 -9.28931 0
    endloop
  endfacet
  facet normal 0.743145 -0.669131 0
    outer loop
      vertex 8.36413 -9.28931 5
      vertex 8.36413 -9.28931 0
      vertex 9.76951 -7.72848 0
    endloop
  endfacet
  facet normal 0.743145 -0.669131 0
    outer loop
      vertex 9.76951 -7.72848 5
      vertex 8.36413 -9.28931 5
      vertex 9.76951 -7.72848 0
    endloop
  endfacet
  facet normal 0.680173 0.733052 0
    outer loop
      vertex 9.76951 -7.72848 5
      vertex 9.76951 -7.72848 0
      vertex 8.96357 -6.98068 5
    endloop
  endfacet
  facet normal 0.680173 0.733052 0
    outer loop
      vertex 8.96357 -6.98068 5
      vertex 9.76951 -7.72848 0
      vertex 8.96357 -6.98068 0
    endloop
  endfacet
  facet normal 0.997204 -0.0747303 0
    outer loop
      vertex 9.09327 -5.25 0
      vertex 9.09327 -5.25 5
      vertex 8.96357 -6.98068 5
    endloop
  endfacet
  facet normal 0.997204 -0.0747303 0
    outer loop
      vertex 8.96357 -6.98068 0
      vertex 9.09327 -5.25 0
      vertex 8.96357 -6.98068 5
    endloop
  endfacet
  facet normal 0.56332 -0.826239 0
    outer loop
      vertex 10.5272 -4.27234 0
      vertex 10.5272 -4.27234 5
      vertex 9.09327 -5.25 5
    endloop
  endfacet
  facet normal 0.56332 -0.826239 0
    outer loop
      vertex 9.09327 -5.25 0
      vertex 10.5272 -4.27234 0
      vertex 9.09327 -5.25 5
    endloop
  endfacet
  facet normal -0.294755 -0.955573 0
    outer loop
      vertex 11.5778 -4.5964 0
      vertex 11.5778 -4.5964 5
      vertex 10.5272 -4.27234 5
    endloop
  endfacet
  facet normal -0.294755 -0.955573 0
    outer loop
      vertex 10.5272 -4.27234 0
      vertex 11.5778 -4.5964 0
      vertex 10.5272 -4.27234 5
    endloop
  endfacet
  facet normal 0.951056 -0.309017 0
    outer loop
      vertex 11.5778 -4.5964 5
      vertex 11.5778 -4.5964 0
      vertex 12.2268 -2.5989 0
    endloop
  endfacet
  facet normal 0.951056 -0.309017 0
    outer loop
      vertex 12.2268 -2.5989 5
      vertex 11.5778 -4.5964 5
      vertex 12.2268 -2.5989 0
    endloop
  endfacet
  facet normal 0.994522 -0.104528 0
    outer loop
      vertex 12.2268 -2.5989 5
      vertex 12.2268 -2.5989 0
      vertex 12.3103 -1.80498 0
    endloop
  endfacet
  facet normal 0.994522 -0.104528 0
    outer loop
      vertex 12.3103 -1.80498 5
      vertex 12.2268 -2.5989 5
      vertex 12.3103 -1.80498 0
    endloop
  endfacet
  facet normal 0.222521 0.974928 0
    outer loop
      vertex 12.3103 -1.80498 5
      vertex 12.3103 -1.80498 0
      vertex 11.253 -1.56366 5
    endloop
  endfacet
  facet normal 0.222521 0.974928 0
    outer loop
      vertex 11.253 -1.56366 5
      vertex 12.3103 -1.80498 0
      vertex 11.253 -1.56366 0
    endloop
  endfacet
  facet normal 0.900969 0.433884 0
    outer loop
      vertex 10.5 -1.28584e-015 5
      vertex 11.253 -1.56366 5
      vertex 11.253 -1.56366 0
    endloop
  endfacet
  facet normal 0.900969 0.433884 0
    outer loop
      vertex 10.5 -1.28584e-015 0
      vertex 10.5 -1.28584e-015 5
      vertex 11.253 -1.56366 0
    endloop
  endfacet
  facet normal 0.900969 -0.433884 0
    outer loop
      vertex 11.253 1.56366 0
      vertex 11.253 1.56366 5
      vertex 10.5 -1.28584e-015 5
    endloop
  endfacet
  facet normal 0.900969 -0.433884 0
    outer loop
      vertex 10.5 -1.28584e-015 0
      vertex 11.253 1.56366 0
      vertex 10.5 -1.28584e-015 5
    endloop
  endfacet
  facet normal 0.222521 -0.974928 0
    outer loop
      vertex 12.3103 1.80498 0
      vertex 12.3103 1.80498 5
      vertex 11.253 1.56366 5
    endloop
  endfacet
  facet normal 0.222521 -0.974928 0
    outer loop
      vertex 11.253 1.56366 0
      vertex 12.3103 1.80498 0
      vertex 11.253 1.56366 5
    endloop
  endfacet
  facet normal 0.994522 0.104528 0
    outer loop
      vertex 12.3103 1.80498 0
      vertex 12.2268 2.5989 0
      vertex 12.2268 2.5989 5
    endloop
  endfacet
  facet normal 0.994522 0.104528 0
    outer loop
      vertex 12.3103 1.80498 5
      vertex 12.3103 1.80498 0
      vertex 12.2268 2.5989 5
    endloop
  endfacet
  facet normal 0.951056 0.309017 0
    outer loop
      vertex 12.2268 2.5989 0
      vertex 11.5778 4.5964 0
      vertex 11.5778 4.5964 5
    endloop
  endfacet
  facet normal 0.951056 0.309017 0
    outer loop
      vertex 12.2268 2.5989 5
      vertex 12.2268 2.5989 0
      vertex 11.5778 4.5964 5
    endloop
  endfacet
  facet normal -0.294755 0.955573 0
    outer loop
      vertex 11.5778 4.5964 5
      vertex 11.5778 4.5964 0
      vertex 10.5272 4.27234 5
    endloop
  endfacet
  facet normal -0.294755 0.955573 0
    outer loop
      vertex 10.5272 4.27234 5
      vertex 11.5778 4.5964 0
      vertex 10.5272 4.27234 0
    endloop
  endfacet
  facet normal 0.56332 0.826239 0
    outer loop
      vertex 10.5272 4.27234 5
      vertex 10.5272 4.27234 0
      vertex 9.09327 5.25 5
    endloop
  endfacet
  facet normal 0.56332 0.826239 0
    outer loop
      vertex 9.09327 5.25 5
      vertex 10.5272 4.27234 0
      vertex 9.09327 5.25 0
    endloop
  endfacet
  facet normal 0.997204 0.0747303 0
    outer loop
      vertex 8.96357 6.98068 5
      vertex 9.09327 5.25 5
      vertex 9.09327 5.25 0
    endloop
  endfacet
  facet normal 0.997204 0.0747303 0
    outer loop
      vertex 8.96357 6.98068 0
      vertex 8.96357 6.98068 5
      vertex 9.09327 5.25 0
    endloop
  endfacet
  facet normal 0.680173 -0.733052 0
    outer loop
      vertex 9.76951 7.72848 0
      vertex 9.76951 7.72848 5
      vertex 8.96357 6.98068 5
    endloop
  endfacet
  facet normal 0.680173 -0.733052 0
    outer loop
      vertex 8.96357 6.98068 0
      vertex 9.76951 7.72848 0
      vertex 8.96357 6.98068 5
    endloop
  endfacet
  facet normal 0.743145 0.669131 0
    outer loop
      vertex 9.76951 7.72848 0
      vertex 8.36413 9.28931 0
      vertex 8.36413 9.28931 5
    endloop
  endfacet
  facet normal 0.743145 0.669131 0
    outer loop
      vertex 9.76951 7.72848 5
      vertex 9.76951 7.72848 0
      vertex 8.36413 9.28931 5
    endloop
  endfacet
  facet normal 0.587785 0.809017 0
    outer loop
      vertex 7.7183 9.75853 0
      vertex 7.7183 9.75853 5
      vertex 8.36413 9.28931 0
    endloop
  endfacet
  facet normal 0.587785 0.809017 0
    outer loop
      vertex 8.36413 9.28931 0
      vertex 7.7183 9.75853 5
      vertex 8.36413 9.28931 5
    endloop
  endfacet
  facet normal -0.733052 0.680173 0
    outer loop
      vertex 7.7183 9.75853 5
      vertex 7.7183 9.75853 0
      vertex 6.98068 8.96357 5
    endloop
  endfacet
  facet normal -0.733052 0.680173 0
    outer loop
      vertex 6.98068 8.96357 5
      vertex 7.7183 9.75853 0
      vertex 6.98068 8.96357 0
    endloop
  endfacet
  facet normal 0.0747303 0.997204 0
    outer loop
      vertex 6.98068 8.96357 5
      vertex 6.98068 8.96357 0
      vertex 5.25 9.09327 5
    endloop
  endfacet
  facet normal 0.0747303 0.997204 0
    outer loop
      vertex 5.25 9.09327 5
      vertex 6.98068 8.96357 0
      vertex 5.25 9.09327 0
    endloop
  endfacet
  facet normal 0.826239 0.56332 0
    outer loop
      vertex 4.27234 10.5272 5
      vertex 5.25 9.09327 5
      vertex 5.25 9.09327 0
    endloop
  endfacet
  facet normal 0.826239 0.56332 0
    outer loop
      vertex 4.27234 10.5272 0
      vertex 4.27234 10.5272 5
      vertex 5.25 9.09327 0
    endloop
  endfacet
  facet normal 0.955573 -0.294755 0
    outer loop
      vertex 4.59199 11.5635 0
      vertex 4.59199 11.5635 5
      vertex 4.27234 10.5272 5
    endloop
  endfacet
  facet normal 0.955573 -0.294755 0
    outer loop
      vertex 4.27234 10.5272 0
      vertex 4.59199 11.5635 0
      vertex 4.27234 10.5272 5
    endloop
  endfacet
  facet normal 0.406736 0.913546 0
    outer loop
      vertex 3.86271 11.8882 0
      vertex 3.86271 11.8882 5
      vertex 4.59199 11.5635 0
    endloop
  endfacet
  facet normal 0.406736 0.913546 0
    outer loop
      vertex 4.59199 11.5635 0
      vertex 3.86271 11.8882 5
      vertex 4.59199 11.5635 5
    endloop
  endfacet
  facet normal 0.207912 0.978148 0
    outer loop
      vertex 1.80831 12.3249 0
      vertex 1.80831 12.3249 5
      vertex 3.86271 11.8882 0
    endloop
  endfacet
  facet normal 0.207912 0.978148 0
    outer loop
      vertex 3.86271 11.8882 0
      vertex 1.80831 12.3249 5
      vertex 3.86271 11.8882 5
    endloop
  endfacet
  facet normal -0.974928 0.222521 0
    outer loop
      vertex 1.80831 12.3249 5
      vertex 1.80831 12.3249 0
      vertex 1.56366 11.253 5
    endloop
  endfacet
  facet normal -0.974928 0.222521 0
    outer loop
      vertex 1.56366 11.253 5
      vertex 1.80831 12.3249 0
      vertex 1.56366 11.253 0
    endloop
  endfacet
  facet normal -0.433884 0.900969 0
    outer loop
      vertex 1.56366 11.253 5
      vertex 1.56366 11.253 0
      vertex 2.33147e-015 10.5 5
    endloop
  endfacet
  facet normal -0.433884 0.900969 0
    outer loop
      vertex 2.33147e-015 10.5 5
      vertex 1.56366 11.253 0
      vertex 2.33147e-015 10.5 0
    endloop
  endfacet
  facet normal 0.433884 0.900969 0
    outer loop
      vertex 2.33147e-015 10.5 5
      vertex 2.33147e-015 10.5 0
      vertex -1.56366 11.253 5
    endloop
  endfacet
  facet normal 0.433884 0.900969 0
    outer loop
      vertex -1.56366 11.253 5
      vertex 2.33147e-015 10.5 0
      vertex -1.56366 11.253 0
    endloop
  endfacet
  facet normal 0.974928 0.222521 0
    outer loop
      vertex -1.80831 12.3249 5
      vertex -1.56366 11.253 5
      vertex -1.56366 11.253 0
    endloop
  endfacet
  facet normal 0.974928 0.222521 0
    outer loop
      vertex -1.80831 12.3249 0
      vertex -1.80831 12.3249 5
      vertex -1.56366 11.253 0
    endloop
  endfacet
  facet normal -0.207912 0.978148 0
    outer loop
      vertex -3.86271 11.8882 0
      vertex -3.86271 11.8882 5
      vertex -1.80831 12.3249 0
    endloop
  endfacet
  facet normal -0.207912 0.978148 0
    outer loop
      vertex -1.80831 12.3249 0
      vertex -3.86271 11.8882 5
      vertex -1.80831 12.3249 5
    endloop
  endfacet
  facet normal -0.406736 0.913546 0
    outer loop
      vertex -4.59199 11.5635 0
      vertex -4.59199 11.5635 5
      vertex -3.86271 11.8882 0
    endloop
  endfacet
  facet normal -0.406736 0.913546 0
    outer loop
      vertex -3.86271 11.8882 0
      vertex -4.59199 11.5635 5
      vertex -3.86271 11.8882 5
    endloop
  endfacet
  facet normal -0.955573 -0.294755 0
    outer loop
      vertex -4.27234 10.5272 5
      vertex -4.59199 11.5635 5
      vertex -4.27234 10.5272 0
    endloop
  endfacet
  facet normal -0.955573 -0.294755 0
    outer loop
      vertex -4.27234 10.5272 0
      vertex -4.59199 11.5635 5
      vertex -4.59199 11.5635 0
    endloop
  endfacet
  facet normal -0.826239 0.56332 0
    outer loop
      vertex -4.27234 10.5272 5
      vertex -4.27234 10.5272 0
      vertex -5.25 9.09327 5
    endloop
  endfacet
  facet normal -0.826239 0.56332 0
    outer loop
      vertex -5.25 9.09327 5
      vertex -4.27234 10.5272 0
      vertex -5.25 9.09327 0
    endloop
  endfacet
  facet normal -0.0747303 0.997204 0
    outer loop
      vertex -5.25 9.09327 5
      vertex -5.25 9.09327 0
      vertex -6.98068 8.96357 5
    endloop
  endfacet
  facet normal -0.0747303 0.997204 0
    outer loop
      vertex -6.98068 8.96357 5
      vertex -5.25 9.09327 0
      vertex -6.98068 8.96357 0
    endloop
  endfacet
  facet normal 0.733052 0.680173 0
    outer loop
      vertex -7.7183 9.75853 5
      vertex -6.98068 8.96357 5
      vertex -6.98068 8.96357 0
    endloop
  endfacet
  facet normal 0.733052 0.680173 0
    outer loop
      vertex -7.7183 9.75853 0
      vertex -7.7183 9.75853 5
      vertex -6.98068 8.96357 0
    endloop
  endfacet
  facet normal -0.587785 0.809017 0
    outer loop
      vertex -8.36413 9.28931 0
      vertex -8.36413 9.28931 5
      vertex -7.7183 9.75853 0
    endloop
  endfacet
  facet normal -0.587785 0.809017 0
    outer loop
      vertex -7.7183 9.75853 0
      vertex -8.36413 9.28931 5
      vertex -7.7183 9.75853 5
    endloop
  endfacet
  facet normal -0.743145 0.669131 0
    outer loop
      vertex -9.76951 7.72848 0
      vertex -9.76951 7.72848 5
      vertex -8.36413 9.28931 0
    endloop
  endfacet
  facet normal -0.743145 0.669131 0
    outer loop
      vertex -8.36413 9.28931 0
      vertex -9.76951 7.72848 5
      vertex -8.36413 9.28931 5
    endloop
  endfacet
  facet normal -0.680173 -0.733052 0
    outer loop
      vertex -8.96357 6.98068 0
      vertex -8.96357 6.98068 5
      vertex -9.76951 7.72848 5
    endloop
  endfacet
  facet normal -0.680173 -0.733052 0
    outer loop
      vertex -9.76951 7.72848 0
      vertex -8.96357 6.98068 0
      vertex -9.76951 7.72848 5
    endloop
  endfacet
  facet normal -0.997204 0.0747303 0
    outer loop
      vertex -8.96357 6.98068 5
      vertex -8.96357 6.98068 0
      vertex -9.09327 5.25 5
    endloop
  endfacet
  facet normal -0.997204 0.0747303 0
    outer loop
      vertex -9.09327 5.25 5
      vertex -8.96357 6.98068 0
      vertex -9.09327 5.25 0
    endloop
  endfacet
  facet normal -0.56332 0.826239 0
    outer loop
      vertex -9.09327 5.25 5
      vertex -9.09327 5.25 0
      vertex -10.5272 4.27234 5
    endloop
  endfacet
  facet normal -0.56332 0.826239 0
    outer loop
      vertex -10.5272 4.27234 5
      vertex -9.09327 5.25 0
      vertex -10.5272 4.27234 0
    endloop
  endfacet
  facet normal 0.294755 0.955573 0
    outer loop
      vertex -10.5272 4.27234 5
      vertex -10.5272 4.27234 0
      vertex -11.5778 4.5964 5
    endloop
  endfacet
  facet normal 0.294755 0.955573 0
    outer loop
      vertex -11.5778 4.5964 5
      vertex -10.5272 4.27234 0
      vertex -11.5778 4.5964 0
    endloop
  endfacet
  facet normal -0.951056 0.309017 0
    outer loop
      vertex -12.2268 2.5989 0
      vertex -12.2268 2.5989 5
      vertex -11.5778 4.5964 0
    endloop
  endfacet
  facet normal -0.951056 0.309017 0
    outer loop
      vertex -11.5778 4.5964 0
      vertex -12.2268 2.5989 5
      vertex -11.5778 4.5964 5
    endloop
  endfacet
  facet normal -0.994522 0.104528 0
    outer loop
      vertex -12.3103 1.80498 0
      vertex -12.3103 1.80498 5
      vertex -12.2268 2.5989 0
    endloop
  endfacet
  facet normal -0.994522 0.104528 0
    outer loop
      vertex -12.2268 2.5989 0
      vertex -12.3103 1.80498 5
      vertex -12.2268 2.5989 5
    endloop
  endfacet
  facet normal -0.222521 -0.974928 0
    outer loop
      vertex -11.253 1.56366 0
      vertex -11.253 1.56366 5
      vertex -12.3103 1.80498 5
    endloop
  endfacet
  facet normal -0.222521 -0.974928 0
    outer loop
      vertex -12.3103 1.80498 0
      vertex -11.253 1.56366 0
      vertex -12.3103 1.80498 5
    endloop
  endfacet
  facet normal -0.900969 -0.433884 0
    outer loop
      vertex -10.5 2.57167e-015 5
      vertex -11.253 1.56366 5
      vertex -10.5 2.57167e-015 0
    endloop
  endfacet
  facet normal -0.900969 -0.433884 0
    outer loop
      vertex -10.5 2.57167e-015 0
      vertex -11.253 1.56366 5
      vertex -11.253 1.56366 0
    endloop
  endfacet
  facet normal -0.900969 0.433884 0
    outer loop
      vertex -10.5 2.57167e-015 5
      vertex -10.5 2.57167e-015 0
      vertex -10.5 1.28584e-015 5
    endloop
  endfacet
  facet normal -0.900969 0.433884 0
    outer loop
      vertex -10.5 1.28584e-015 5
      vertex -10.5 2.57167e-015 0
      vertex -10.5 1.28584e-015 0
    endloop
  endfacet
  facet normal -0.900969 -0.433884 0
    outer loop
      vertex -10.5 0 5
      vertex -10.5 1.28584e-015 5
      vertex -10.5 0 0
    endloop
  endfacet
  facet normal -0.900969 -0.433884 0
    outer loop
      vertex -10.5 0 0
      vertex -10.5 1.28584e-015 5
      vertex -10.5 1.28584e-015 0
    endloop
  endfacet
  facet normal 0.866025 -0.5 0
    outer loop
      vertex -2.94449 5.1 0
      vertex -2.94449 5.1 4
      vertex -5.88897 0 4
    endloop
  endfacet
  facet normal 0.866025 -0.5 0
    outer loop
      vertex -5.88897 0 0
      vertex -2.94449 5.1 0
      vertex -5.88897 0 4
    endloop
  endfacet
  facet normal 0.866025 0.5 0
    outer loop
      vertex -5.88897 0 4
      vertex -2.94449 -5.1 4
      vertex -2.94449 -5.1 0
    endloop
  endfacet
  facet normal 0.866025 0.5 0
    outer loop
      vertex -5.88897 0 0
      vertex -5.88897 0 4
      vertex -2.94449 -5.1 0
    endloop
  endfacet
  facet normal 0 -1 0
    outer loop
      vertex 2.94449 5.1 0
      vertex 2.94449 5.1 4
      vertex -2.94449 5.1 4
    endloop
  endfacet
  facet normal 0 -1 0
    outer loop
      vertex -2.94449 5.1 0
      vertex 2.94449 5.1 0
      vertex -2.94449 5.1 4
    endloop
  endfacet
  facet normal -0.866025 -0.5 0
    outer loop
      vertex 5.88897 0 4
      vertex 2.94449 5.1 4
      vertex 5.88897 0 0
    endloop
  endfacet
  facet normal -0.866025 -0.5 0
    outer loop
      vertex 5.88897 0 0
      vertex 2.94449 5.1 4
      vertex 2.94449 5.1 0
    endloop
  endfacet
  facet normal -0.866025 0.5 0
    outer loop
      vertex 5.88897 0 4
      vertex 5.88897 0 0
      vertex 2.94449 -5.1 4
    endloop
  endfacet
  facet normal -0.866025 0.5 0
    outer loop
      vertex 2.94449 -5.1 4
      vertex 5.88897 0 0
      vertex 2.94449 -5.1 0
    endloop
  endfacet
  facet normal 0 1 0
    outer loop
      vertex 2.94449 -5.1 4
      vertex 2.94449 -5.1 0
      vertex -2.94449 -5.1 4
    endloop
  endfacet
  facet normal 0 1 0
    outer loop
      vertex -2.94449 -5.1 4
      vertex 2.94449 -5.1 0
      vertex -2.94449 -5.1 0
    endloop
  endfacet
  facet normal -1 0 0
    outer loop
      vertex -6.4274 -0.968775 5
      vertex -6.4274 -0.968775 10
      vertex -6.4274 0.968775 5
    endloop
  endfacet
  facet normal -1 0 0
    outer loop
      vertex -6.4274 0.968775 5
      vertex -6.4274 -0.968775 10
      vertex -6.4274 0.968775 10
    endloop
  endfacet
  facet normal -0.955573 -0.294755 0
    outer loop
      vertex -6.4274 -0.968775 5
      vertex -5.8563 -2.82024 5
      vertex -6.4274 -0.968775 10
    endloop
  endfacet
  facet normal -0.955573 -0.294755 0
    outer loop
      vertex -6.4274 -0.968775 10
      vertex -5.8563 -2.82024 5
      vertex -5.8563 -2.82024 10
    endloop
  endfacet
  facet normal -0.826239 -0.56332 0
    outer loop
      vertex -5.8563 -2.82024 5
      vertex -4.76484 -4.42112 5
      vertex -5.8563 -2.82024 10
    endloop
  endfacet
  facet normal -0.826239 -0.56332 0
    outer loop
      vertex -5.8563 -2.82024 10
      vertex -4.76484 -4.42112 5
      vertex -4.76484 -4.42112 10
    endloop
  endfacet
  facet normal -0.62349 -0.781832 0
    outer loop
      vertex -4.76484 -4.42112 10
      vertex -4.76484 -4.42112 5
      vertex -3.25 -5.62916 5
    endloop
  endfacet
  facet normal -0.62349 -0.781832 0
    outer loop
      vertex -3.25 -5.62916 10
      vertex -4.76484 -4.42112 10
      vertex -3.25 -5.62916 5
    endloop
  endfacet
  facet normal -0.365341 -0.930874 0
    outer loop
      vertex -3.25 -5.62916 10
      vertex -3.25 -5.62916 5
      vertex -1.44639 -6.33703 5
    endloop
  endfacet
  facet normal -0.365341 -0.930874 0
    outer loop
      vertex -1.44639 -6.33703 10
      vertex -3.25 -5.62916 10
      vertex -1.44639 -6.33703 5
    endloop
  endfacet
  facet normal -0.0747305 -0.997204 0
    outer loop
      vertex -1.44639 -6.33703 10
      vertex -1.44639 -6.33703 5
      vertex 0.485746 -6.48182 5
    endloop
  endfacet
  facet normal -0.0747305 -0.997204 0
    outer loop
      vertex 0.485746 -6.48182 10
      vertex -1.44639 -6.33703 10
      vertex 0.485746 -6.48182 5
    endloop
  endfacet
  facet normal 0.222521 -0.974928 0
    outer loop
      vertex 0.485746 -6.48182 10
      vertex 0.485746 -6.48182 5
      vertex 2.37472 -6.05068 5
    endloop
  endfacet
  facet normal 0.222521 -0.974928 0
    outer loop
      vertex 2.37472 -6.05068 10
      vertex 0.485746 -6.48182 10
      vertex 2.37472 -6.05068 5
    endloop
  endfacet
  facet normal 0.5 -0.866026 0
    outer loop
      vertex 2.37472 -6.05068 10
      vertex 2.37472 -6.05068 5
      vertex 4.05268 -5.0819 5
    endloop
  endfacet
  facet normal 0.5 -0.866026 0
    outer loop
      vertex 4.05268 -5.0819 10
      vertex 2.37472 -6.05068 10
      vertex 4.05268 -5.0819 5
    endloop
  endfacet
  facet normal 0.733052 -0.680172 0
    outer loop
      vertex 4.05268 -5.0819 10
      vertex 4.05268 -5.0819 5
      vertex 5.37055 -3.66158 5
    endloop
  endfacet
  facet normal 0.733052 -0.680172 0
    outer loop
      vertex 5.37055 -3.66158 10
      vertex 4.05268 -5.0819 10
      vertex 5.37055 -3.66158 5
    endloop
  endfacet
  facet normal 0.900969 -0.433884 0
    outer loop
      vertex 5.37055 -3.66158 10
      vertex 5.37055 -3.66158 5
      vertex 6.21122 -1.91591 5
    endloop
  endfacet
  facet normal 0.900969 -0.433884 0
    outer loop
      vertex 6.21122 -1.91591 10
      vertex 5.37055 -3.66158 10
      vertex 6.21122 -1.91591 5
    endloop
  endfacet
  facet normal 0.988831 -0.149042 0
    outer loop
      vertex 6.21122 -1.91591 10
      vertex 6.21122 -1.91591 5
      vertex 6.5 0 5
    endloop
  endfacet
  facet normal 0.988831 -0.149042 0
    outer loop
      vertex 6.5 0 10
      vertex 6.21122 -1.91591 10
      vertex 6.5 0 5
    endloop
  endfacet
  facet normal 0.988831 0.149042 0
    outer loop
      vertex 6.5 0 5
      vertex 6.21122 1.91591 5
      vertex 6.21122 1.91591 10
    endloop
  endfacet
  facet normal 0.988831 0.149042 0
    outer loop
      vertex 6.5 0 10
      vertex 6.5 0 5
      vertex 6.21122 1.91591 10
    endloop
  endfacet
  facet normal 0.900969 0.433884 0
    outer loop
      vertex 6.21122 1.91591 5
      vertex 5.37055 3.66158 5
      vertex 5.37055 3.66158 10
    endloop
  endfacet
  facet normal 0.900969 0.433884 0
    outer loop
      vertex 6.21122 1.91591 10
      vertex 6.21122 1.91591 5
      vertex 5.37055 3.66158 10
    endloop
  endfacet
  facet normal 0.733052 0.680172 0
    outer loop
      vertex 5.37055 3.66158 5
      vertex 4.05268 5.0819 5
      vertex 4.05268 5.0819 10
    endloop
  endfacet
  facet normal 0.733052 0.680172 0
    outer loop
      vertex 5.37055 3.66158 10
      vertex 5.37055 3.66158 5
      vertex 4.05268 5.0819 10
    endloop
  endfacet
  facet normal 0.5 0.866026 0
    outer loop
      vertex 2.37472 6.05068 5
      vertex 2.37472 6.05068 10
      vertex 4.05268 5.0819 5
    endloop
  endfacet
  facet normal 0.5 0.866026 0
    outer loop
      vertex 4.05268 5.0819 5
      vertex 2.37472 6.05068 10
      vertex 4.05268 5.0819 10
    endloop
  endfacet
  facet normal 0.222521 0.974928 0
    outer loop
      vertex 0.485746 6.48182 5
      vertex 0.485746 6.48182 10
      vertex 2.37472 6.05068 5
    endloop
  endfacet
  facet normal 0.222521 0.974928 0
    outer loop
      vertex 2.37472 6.05068 5
      vertex 0.485746 6.48182 10
      vertex 2.37472 6.05068 10
    endloop
  endfacet
  facet normal -0.0747305 0.997204 0
    outer loop
      vertex -1.44639 6.33703 5
      vertex -1.44639 6.33703 10
      vertex 0.485746 6.48182 5
    endloop
  endfacet
  facet normal -0.0747305 0.997204 0
    outer loop
      vertex 0.485746 6.48182 5
      vertex -1.44639 6.33703 10
      vertex 0.485746 6.48182 10
    endloop
  endfacet
  facet normal -0.365341 0.930874 0
    outer loop
      vertex -3.25 5.62916 5
      vertex -3.25 5.62916 10
      vertex -1.44639 6.33703 5
    endloop
  endfacet
  facet normal -0.365341 0.930874 0
    outer loop
      vertex -1.44639 6.33703 5
      vertex -3.25 5.62916 10
      vertex -1.44639 6.33703 10
    endloop
  endfacet
  facet normal -0.62349 0.781832 0
    outer loop
      vertex -4.76484 4.42112 5
      vertex -4.76484 4.42112 10
      vertex -3.25 5.62916 5
    endloop
  endfacet
  facet normal -0.62349 0.781832 0
    outer loop
      vertex -3.25 5.62916 5
      vertex -4.76484 4.42112 10
      vertex -3.25 5.62916 10
    endloop
  endfacet
  facet normal -0.826239 0.56332 0
    outer loop
      vertex -5.8563 2.82024 5
      vertex -5.8563 2.82024 10
      vertex -4.76484 4.42112 5
    endloop
  endfacet
  facet normal -0.826239 0.56332 0
    outer loop
      vertex -4.76484 4.42112 5
      vertex -5.8563 2.82024 10
      vertex -4.76484 4.42112 10
    endloop
  endfacet
  facet normal -0.955573 0.294755 0
    outer loop
      vertex -6.4274 0.968775 5
      vertex -6.4274 0.968775 10
      vertex -5.8563 2.82024 5
    endloop
  endfacet
  facet normal -0.955573 0.294755 0
    outer loop
      vertex -5.8563 2.82024 5
      vertex -6.4274 0.968775 10
      vertex -5.8563 2.82024 10
    endloop
  endfacet
  facet normal 0 0 -1
    outer loop
      vertex -0.462523 3.21692 4
      vertex -2.94449 5.1 4
      vertex 1.3501 2.9563 4
    endloop
  endfacet
  facet normal 0 0 -1
    outer loop
      vertex 2.73407 -1.75708 4
      vertex 5.88897 0 4
      vertex 2.94449 -5.1 4
    endloop
  endfacet
  facet normal 0 0 -1
    outer loop
      vertex -2.1283 -2.45619 4
      vertex 2.94449 -5.1 4
      vertex -2.94449 -5.1 4
    endloop
  endfacet
  facet normal 0 0 -1
    outer loop
      vertex -3.11835 -0.915631 4
      vertex -2.94449 -5.1 4
      vertex -5.88897 0 4
    endloop
  endfacet
  facet normal 0 0 -1
    outer loop
      vertex -3.11835 0.915631 4
      vertex -3.11835 -0.915631 4
      vertex -5.88897 0 4
    endloop
  endfacet
  facet normal 0 0 -1
    outer loop
      vertex -0.462523 -3.21692 4
      vertex 2.94449 -5.1 4
      vertex -2.1283 -2.45619 4
    endloop
  endfacet
  facet normal 0 0 -1
    outer loop
      vertex 2.73407 -1.75708 4
      vertex 2.94449 -5.1 4
      vertex 1.3501 -2.9563 4
    endloop
  endfacet
  facet normal 0 0 -1
    outer loop
      vertex 1.3501 -2.9563 4
      vertex 2.94449 -5.1 4
      vertex -0.462523 -3.21692 4
    endloop
  endfacet
  facet normal 0 0 -1
    outer loop
      vertex 3.25 0 4
      vertex 5.88897 0 4
      vertex 2.73407 -1.75708 4
    endloop
  endfacet
  facet normal 0 0 -1
    outer loop
      vertex 1.3501 2.9563 4
      vertex 5.88897 0 4
      vertex 2.73407 1.75708 4
    endloop
  endfacet
  facet normal 0 0 -1
    outer loop
      vertex 2.73407 1.75708 4
      vertex 5.88897 0 4
      vertex 3.25 0 4
    endloop
  endfacet
  facet normal 0 0 -1
    outer loop
      vertex 2.94449 5.1 4
      vertex 5.88897 0 4
      vertex 1.3501 2.9563 4
    endloop
  endfacet
  facet normal 0 0 -1
    outer loop
      vertex 2.94449 5.1 4
      vertex 1.3501 2.9563 4
      vertex -2.94449 5.1 4
    endloop
  endfacet
  facet normal 0 0 -1
    outer loop
      vertex -2.1283 2.45619 4
      vertex -2.94449 5.1 4
      vertex -0.462523 3.21692 4
    endloop
  endfacet
  facet normal 0 0 -1
    outer loop
      vertex -3.11835 0.915631 4
      vertex -2.94449 5.1 4
      vertex -2.1283 2.45619 4
    endloop
  endfacet
  facet normal 0 0 -1
    outer loop
      vertex -2.94449 5.1 4
      vertex -3.11835 0.915631 4
      vertex -5.88897 0 4
    endloop
  endfacet
  facet normal 0 0 -1
    outer loop
      vertex -2.1283 -2.45619 4
      vertex -2.94449 -5.1 4
      vertex -3.11835 -0.915631 4
    endloop
  endfacet
  facet normal 0 0 1
    outer loop
      vertex -6.4274 0.968775 10
      vertex -6.4274 -0.968775 10
      vertex -5.8563 -2.82024 10
    endloop
  endfacet
  facet normal 0 0 1
    outer loop
      vertex -3.25 -5.62916 10
      vertex -6.4274 0.968775 10
      vertex -4.76484 -4.42112 10
    endloop
  endfacet
  facet normal 0 0 1
    outer loop
      vertex -4.76484 -4.42112 10
      vertex -6.4274 0.968775 10
      vertex -5.8563 -2.82024 10
    endloop
  endfacet
  facet normal 0 0 1
    outer loop
      vertex -1.44639 -6.33703 10
      vertex -6.4274 0.968775 10
      vertex -3.25 -5.62916 10
    endloop
  endfacet
  facet normal 0 0 1
    outer loop
      vertex 0.485746 -6.48182 10
      vertex -6.4274 0.968775 10
      vertex -1.44639 -6.33703 10
    endloop
  endfacet
  facet normal 0 0 1
    outer loop
      vertex 2.37472 -6.05068 10
      vertex -6.4274 0.968775 10
      vertex 0.485746 -6.48182 10
    endloop
  endfacet
  facet normal 0 0 1
    outer loop
      vertex -2.1283 -2.45619 10
      vertex -6.4274 0.968775 10
      vertex 2.37472 -6.05068 10
    endloop
  endfacet
  facet normal 0 0 1
    outer loop
      vertex -3.11835 0.915631 10
      vertex -2.1283 2.45619 10
      vertex -6.4274 0.968775 10
    endloop
  endfacet
  facet normal 0 0 1
    outer loop
      vertex 2.73407 -1.75708 10
      vertex 1.3501 -2.9563 10
      vertex 5.37055 -3.66158 10
    endloop
  endfacet
  facet normal 0 0 1
    outer loop
      vertex 1.3501 2.9563 10
      vertex 2.73407 1.75708 10
      vertex 5.37055 3.66158 10
    endloop
  endfacet
  facet normal 0 0 1
    outer loop
      vertex -0.462523 3.21692 10
      vertex 5.37055 3.66158 10
      vertex 4.05268 5.0819 10
    endloop
  endfacet
  facet normal 0 0 1
    outer loop
      vertex 2.37472 6.05068 10
      vertex -6.4274 0.968775 10
      vertex 4.05268 5.0819 10
    endloop
  endfacet
  facet normal 0 0 1
    outer loop
      vertex 0.485746 6.48182 10
      vertex -6.4274 0.968775 10
      vertex 2.37472 6.05068 10
    endloop
  endfacet
  facet normal 0 0 1
    outer loop
      vertex -1.44639 6.33703 10
      vertex -6.4274 0.968775 10
      vertex 0.485746 6.48182 10
    endloop
  endfacet
  facet normal 0 0 1
    outer loop
      vertex -3.25 5.62916 10
      vertex -6.4274 0.968775 10
      vertex -1.44639 6.33703 10
    endloop
  endfacet
  facet normal 0 0 1
    outer loop
      vertex -4.76484 4.42112 10
      vertex -6.4274 0.968775 10
      vertex -3.25 5.62916 10
    endloop
  endfacet
  facet normal 0 0 1
    outer loop
      vertex -5.8563 2.82024 10
      vertex -6.4274 0.968775 10
      vertex -4.76484 4.42112 10
    endloop
  endfacet
  facet normal 0 0 1
    outer loop
      vertex 3.25 0 10
      vertex 2.73407 -1.75708 10
      vertex 6.21122 -1.91591 10
    endloop
  endfacet
  facet normal 0 0 1
    outer loop
      vertex 2.73407 1.75708 10
      vertex 6.5 0 10
      vertex 6.21122 1.91591 10
    endloop
  endfacet
  facet normal 0 0 1
    outer loop
      vertex -0.462523 3.21692 10
      vertex -6.4274 0.968775 10
      vertex -2.1283 2.45619 10
    endloop
  endfacet
  facet normal 0 0 1
    outer loop
      vertex 2.73407 1.75708 10
      vertex 3.25 0 10
      vertex 6.5 0 10
    endloop
  endfacet
  facet normal 0 0 1
    outer loop
      vertex 4.05268 5.0819 10
      vertex -6.4274 0.968775 10
      vertex -0.462523 3.21692 10
    endloop
  endfacet
  facet normal 0 0 1
    outer loop
      vertex 5.37055 3.66158 10
      vertex 2.73407 1.75708 10
      vertex 6.21122 1.91591 10
    endloop
  endfacet
  facet normal 0 0 1
    outer loop
      vertex -0.462523 3.21692 10
      vertex 1.3501 2.9563 10
      vertex 5.37055 3.66158 10
    endloop
  endfacet
  facet normal 0 0 1
    outer loop
      vertex 6.5 0 10
      vertex 3.25 0 10
      vertex 6.21122 -1.91591 10
    endloop
  endfacet
  facet normal 0 0 1
    outer loop
      vertex 6.21122 -1.91591 10
      vertex 2.73407 -1.75708 10
      vertex 5.37055 -3.66158 10
    endloop
  endfacet
  facet normal 0 0 1
    outer loop
      vertex 5.37055 -3.66158 10
      vertex 1.3501 -2.9563 10
      vertex 4.05268 -5.0819 10
    endloop
  endfacet
  facet normal 0 0 1
    outer loop
      vertex 4.05268 -5.0819 10
      vertex -0.462523 -3.21692 10
      vertex 2.37472 -6.05068 10
    endloop
  endfacet
  facet normal 0 0 1
    outer loop
      vertex -0.462523 -3.21692 10
      vertex -2.1283 -2.45619 10
      vertex 2.37472 -6.05068 10
    endloop
  endfacet
  facet normal 0 0 1
    outer loop
      vertex -2.1283 -2.45619 10
      vertex -3.11835 -0.915631 10
      vertex -6.4274 0.968775 10
    endloop
  endfacet
  facet normal 0 0 1
    outer loop
      vertex 1.3501 -2.9563 10
      vertex -0.462523 -3.21692 10
      vertex 4.05268 -5.0819 10
    endloop
  endfacet
  facet normal 0 0 1
    outer loop
      vertex -3.11835 -0.915631 10
      vertex -3.11835 0.915631 10
      vertex -6.4274 0.968775 10
    endloop
  endfacet
  facet normal 1 0 0
    outer loop
      vertex -3.11835 0.915631 4
      vertex -3.11835 0.915631 10
      vertex -3.11835 -0.915631 10
    endloop
  endfacet
  facet normal 1 0 0
    outer loop
      vertex -3.11835 -0.915631 4
      vertex -3.11835 0.915631 4
      vertex -3.11835 -0.915631 10
    endloop
  endfacet
  facet normal 0.841253 0.540641 0
    outer loop
      vertex -3.11835 -0.915631 10
      vertex -2.1283 -2.45619 10
      vertex -2.1283 -2.45619 4
    endloop
  endfacet
  facet normal 0.841253 0.540641 0
    outer loop
      vertex -3.11835 -0.915631 4
      vertex -3.11835 -0.915631 10
      vertex -2.1283 -2.45619 4
    endloop
  endfacet
  facet normal 0.841253 -0.540641 0
    outer loop
      vertex -2.1283 2.45619 4
      vertex -2.1283 2.45619 10
      vertex -3.11835 0.915631 10
    endloop
  endfacet
  facet normal 0.841253 -0.540641 0
    outer loop
      vertex -3.11835 0.915631 4
      vertex -2.1283 2.45619 4
      vertex -3.11835 0.915631 10
    endloop
  endfacet
  facet normal 0.415415 -0.909632 0
    outer loop
      vertex -0.462523 3.21692 4
      vertex -0.462523 3.21692 10
      vertex -2.1283 2.45619 10
    endloop
  endfacet
  facet normal 0.415415 -0.909632 0
    outer loop
      vertex -2.1283 2.45619 4
      vertex -0.462523 3.21692 4
      vertex -2.1283 2.45619 10
    endloop
  endfacet
  facet normal -0.142315 -0.989821 0
    outer loop
      vertex 1.3501 2.9563 4
      vertex 1.3501 2.9563 10
      vertex -0.462523 3.21692 10
    endloop
  endfacet
  facet normal -0.142315 -0.989821 0
    outer loop
      vertex -0.462523 3.21692 4
      vertex 1.3501 2.9563 4
      vertex -0.462523 3.21692 10
    endloop
  endfacet
  facet normal -0.654861 -0.75575 0
    outer loop
      vertex 2.73407 1.75708 4
      vertex 2.73407 1.75708 10
      vertex 1.3501 2.9563 10
    endloop
  endfacet
  facet normal -0.654861 -0.75575 0
    outer loop
      vertex 1.3501 2.9563 4
      vertex 2.73407 1.75708 4
      vertex 1.3501 2.9563 10
    endloop
  endfacet
  facet normal -0.959493 -0.281732 0
    outer loop
      vertex 3.25 0 10
      vertex 2.73407 1.75708 10
      vertex 3.25 0 4
    endloop
  endfacet
  facet normal -0.959493 -0.281732 0
    outer loop
      vertex 3.25 0 4
      vertex 2.73407 1.75708 10
      vertex 2.73407 1.75708 4
    endloop
  endfacet
  facet normal -0.959493 0.281732 0
    outer loop
      vertex 3.25 0 10
      vertex 3.25 0 4
      vertex 2.73407 -1.75708 10
    endloop
  endfacet
  facet normal -0.959493 0.281732 0
    outer loop
      vertex 2.73407 -1.75708 10
      vertex 3.25 0 4
      vertex 2.73407 -1.75708 4
    endloop
  endfacet
  facet normal -0.654861 0.75575 0
    outer loop
      vertex 2.73407 -1.75708 10
      vertex 2.73407 -1.75708 4
      vertex 1.3501 -2.9563 10
    endloop
  endfacet
  facet normal -0.654861 0.75575 0
    outer loop
      vertex 1.3501 -2.9563 10
      vertex 2.73407 -1.75708 4
      vertex 1.3501 -2.9563 4
    endloop
  endfacet
  facet normal -0.142315 0.989821 0
    outer loop
      vertex 1.3501 -2.9563 10
      vertex 1.3501 -2.9563 4
      vertex -0.462523 -3.21692 10
    endloop
  endfacet
  facet normal -0.142315 0.989821 0
    outer loop
      vertex -0.462523 -3.21692 10
      vertex 1.3501 -2.9563 4
      vertex -0.462523 -3.21692 4
    endloop
  endfacet
  facet normal 0.415415 0.909632 0
    outer loop
      vertex -0.462523 -3.21692 10
      vertex -0.462523 -3.21692 4
      vertex -2.1283 -2.45619 10
    endloop
  endfacet
  facet normal 0.415415 0.909632 0
    outer loop
      vertex -2.1283 -2.45619 10
      vertex -0.462523 -3.21692 4
      vertex -2.1283 -2.45619 4
    endloop
  endfacet
endsolid OpenSCAD_Model
